<svg width="22" height="22" viewBox="0 0 24 24" fill="none" xmlns="http://www.w3.org/2000/svg">
<path d="M12.2923 6.06179L1 17.3539V23H6.64615L17.9385 11.7078M12.2923 6.06179L16.3414 2.01262L16.344 2.01022C16.9013 1.45284 17.1805 1.17365 17.5023 1.06909C17.7859 0.976971 18.0912 0.976971 18.3748 1.06909C18.6963 1.17358 18.9752 1.45244 19.5318 2.00903L21.9876 4.46479C22.5466 5.02379 22.8262 5.30341 22.9309 5.6257C23.0231 5.90919 23.023 6.21456 22.9309 6.49806C22.8263 6.82011 22.5471 7.09931 21.9889 7.6575L21.9876 7.6587L17.9385 11.7078M12.2923 6.06179L17.9385 11.7078" stroke="#7FFF00" stroke-width="2" stroke-linecap="round" stroke-linejoin="round"/>
</svg>
